<svg width="203" height="204" viewBox="0 0 203 204" fill="none" xmlns="http://www.w3.org/2000/svg">
<g filter="url(#filter0_d_26_15)">
<path d="M40.7573 84.4034C36.1734 78.6 39.8171 70.0233 47.1764 69.2938V69.2938C52.6355 68.7527 56.4598 63.6525 55.4496 58.2605V58.2605C54.0877 50.9916 61.2998 45.0906 68.1552 47.8647V47.8647C73.2404 49.9225 78.9969 47.1838 80.6082 41.9399V41.9399C82.7803 34.8708 91.9087 32.9974 96.6896 38.6396V38.6396C100.236 42.8249 106.606 43.075 110.47 39.1806V39.1806C115.678 33.9306 124.631 36.5139 126.243 43.7317V43.7317C127.438 49.0857 132.962 52.2674 138.193 50.6146V50.6146C145.245 48.3865 151.972 54.8348 150.044 61.9745V61.9745C148.614 67.2707 152.027 72.6551 157.427 73.6225V73.6225C164.706 74.9268 167.666 83.7627 162.642 89.1889V89.1889C158.914 93.2139 159.434 99.5675 163.765 102.934V102.934C169.605 107.471 168.12 116.671 161.149 119.14V119.14C155.978 120.972 153.485 126.839 155.756 131.833V131.833C158.818 138.565 153.228 146.02 145.908 144.967V144.967C140.478 144.186 135.544 148.223 135.235 153.7V153.7C134.817 161.084 126.403 165.087 120.41 160.753V160.753C115.965 157.538 109.721 158.82 106.901 163.525V163.525C103.101 169.869 93.7892 169.504 90.4975 162.881V162.881C88.0557 157.969 81.9308 156.202 77.2475 159.058V159.058C70.9338 162.909 62.8589 158.258 63.0218 150.865V150.865C63.1426 145.38 58.5406 140.969 53.0661 141.322V141.322C45.6861 141.798 40.6975 133.927 44.2777 127.456V127.456C46.9334 122.656 44.9085 116.611 39.8971 114.38V114.38C33.1413 111.371 32.3819 102.084 38.5592 98.0176V98.0176C43.1415 95.0015 44.1576 88.7083 40.7573 84.4034V84.4034Z" fill="url(#paint0_linear_26_15)"/>
</g>
<defs>
<filter id="filter0_d_26_15" x="8.21227" y="26.1041" width="177.619" height="177.327" filterUnits="userSpaceOnUse" color-interpolation-filters="sRGB">
<feFlood flood-opacity="0" result="BackgroundImageFix"/>
<feColorMatrix in="SourceAlpha" type="matrix" values="0 0 0 0 0 0 0 0 0 0 0 0 0 0 0 0 0 0 127 0" result="hardAlpha"/>
<feOffset dx="-3.84326" dy="13.0671"/>
<feGaussianBlur stdDeviation="11.1454"/>
<feComposite in2="hardAlpha" operator="out"/>
<feColorMatrix type="matrix" values="0 0 0 0 0.0775104 0 0 0 0 0.241623 0 0 0 0 0.157958 0 0 0 0.46 0"/>
<feBlend mode="normal" in2="BackgroundImageFix" result="effect1_dropShadow_26_15"/>
<feBlend mode="normal" in="SourceGraphic" in2="effect1_dropShadow_26_15" result="shape"/>
</filter>
<linearGradient id="paint0_linear_26_15" x1="153.164" y1="39.4476" x2="112.582" y2="149.634" gradientUnits="userSpaceOnUse">
<stop stop-color="#237249"/>
<stop offset="1" stop-color="#35C66B"/>
</linearGradient>
</defs>
</svg>
